<?xml version="1.0" encoding="utf-8"?>
<!-- Generator: Adobe Illustrator 24.3.0, SVG Export Plug-In . SVG Version: 6.00 Build 0)  -->
<svg version="1.1" id="Layer_1" xmlns="http://www.w3.org/2000/svg" xmlns:xlink="http://www.w3.org/1999/xlink" x="0px" y="0px"
	 viewBox="0 0 80 80" enable-background="new 0 0 80 80" xml:space="preserve">
<path fill="white" d="M26.029,58.156c-1.683,0-3.047,1.334-3.047,2.979c0,1.646,1.364,2.979,3.047,2.979
	c1.683,0,3.047-1.333,3.047-2.979C29.076,59.49,27.712,58.156,26.029,58.156z M43.824,58.156c-1.682,0-3.046,1.334-3.046,2.979
	c0,1.646,1.364,2.979,3.046,2.979c1.683,0,3.047-1.333,3.047-2.979C46.871,59.49,45.507,58.156,43.824,58.156z M22.515,26.997
	l5.416,14.5h21.793l6.189-14.5H22.515z"/>
<g>
	<g>
		<path fill="#233251" d="M58.753,13l-9.67,28.181H23.85l-6.527-17.968h29.111v-2.27H14.036l7.722,21.258l-6.281,10.643h35.794
			v-2.271H19.494l4.207-7.125h27.051l9.67-28.18H71v-2.268L58.753,13z M25.353,54.861c-3.134,0.002-5.674,2.484-5.676,5.548
			c0.002,3.065,2.542,5.548,5.676,5.549c3.133-0.002,5.672-2.485,5.672-5.549C31.025,57.345,28.486,54.863,25.353,54.861z
			 M25.353,63.688c-1.853-0.003-3.35-1.468-3.353-3.279c0.003-1.81,1.5-3.274,3.353-3.277c1.849,0.003,3.349,1.467,3.352,3.277
			C28.702,62.221,27.202,63.685,25.353,63.688z M43.147,54.861c-3.134,0.002-5.673,2.484-5.674,5.548
			c0.001,3.065,2.54,5.548,5.674,5.549c3.134-0.002,5.672-2.485,5.674-5.549C48.819,57.345,46.281,54.863,43.147,54.861z
			 M43.147,63.688c-1.851-0.003-3.349-1.468-3.352-3.279c0.003-1.81,1.501-3.274,3.352-3.277c1.851,0.003,3.35,1.467,3.353,3.277
			C46.497,62.221,44.998,63.685,43.147,63.688z"/>
	</g>
</g>
</svg>
